# xmcd
#
# Track frame offsets:
#	150
#	16467
#	36680
#	55160
#	75577
#	92392
#	111952
#	129002
#	145730
#	163942
#	185187
#
# Disc length: 2917 seconds
#
# Revision: 1
# Processed by: cddbd v1.5.2PL0 Copyright (c) Steve Scherf et al.
# Submitted via: audiograbber 1.83.01
#
DISCID=910b630b
DTITLE=AdAstra - AdAstra
DYEAR=1994
DGENRE=
TTITLE0=Satisfied
TTITLE1=Sister Ann
TTITLE2=Revolution
TTITLE3=No matter
TTITLE4=Iaonnama
TTITLE5=Mixed-up City
TTITLE6=Push it
TTITLE7=Stay free
TTITLE8=We're not alone
TTITLE9=Don't say goodbye
TTITLE10=Summerrain
EXTD=
EXTT0=
EXTT1=
EXTT2=
EXTT3=
EXTT4=
EXTT5=
EXTT6=
EXTT7=
EXTT8=
EXTT9=
EXTT10=
PLAYORDER=
